# 3D Drone Swarm Simulation
# Drones, Obstacles, Target

# Obstacles
# Obstacle 1
v 60 115 60
v 60 115 60
v 60 115 60
v 60 115 60
v 60 115 60
v 60 115 60
v 60 115 60
v 60 115 60
v 60 115 60
v 65.7403 113.858 60
v 64.059 113.858 64.059
v 60 113.858 65.7403
v 55.941 113.858 64.059
v 54.2597 113.858 60
v 55.941 113.858 55.941
v 60 113.858 54.2597
v 64.059 113.858 55.941
v 65.7403 113.858 60
v 70.6066 110.607 60
v 67.5 110.607 67.5
v 60 110.607 70.6066
v 52.5 110.607 67.5
v 49.3934 110.607 60
v 52.5 110.607 52.5
v 60 110.607 49.3934
v 67.5 110.607 52.5
v 70.6066 110.607 60
v 73.8582 105.74 60
v 69.7992 105.74 69.7992
v 60 105.74 73.8582
v 50.2008 105.74 69.7992
v 46.1418 105.74 60
v 50.2008 105.74 50.2008
v 60 105.74 46.1418
v 69.7992 105.74 50.2008
v 73.8582 105.74 60
v 75 100 60
v 70.6066 100 70.6066
v 60 100 75
v 49.3934 100 70.6066
v 45 100 60
v 49.3934 100 49.3934
v 60 100 45
v 70.6066 100 49.3934
v 75 100 60
v 73.8582 94.2597 60
v 69.7992 94.2597 69.7992
v 60 94.2597 73.8582
v 50.2008 94.2597 69.7992
v 46.1418 94.2597 60
v 50.2008 94.2597 50.2008
v 60 94.2597 46.1418
v 69.7992 94.2597 50.2008
v 73.8582 94.2597 60
v 70.6066 89.3934 60
v 67.5 89.3934 67.5
v 60 89.3934 70.6066
v 52.5 89.3934 67.5
v 49.3934 89.3934 60
v 52.5 89.3934 52.5
v 60 89.3934 49.3934
v 67.5 89.3934 52.5
v 70.6066 89.3934 60
v 65.7403 86.1418 60
v 64.059 86.1418 64.059
v 60 86.1418 65.7403
v 55.941 86.1418 64.059
v 54.2597 86.1418 60
v 55.941 86.1418 55.941
v 60 86.1418 54.2597
v 64.059 86.1418 55.941
v 65.7403 86.1418 60
v 60 85 60
v 60 85 60
v 60 85 60
v 60 85 60
v 60 85 60
v 60 85 60
v 60 85 60
v 60 85 60
v 60 85 60
# Obstacle 2
v 140 112 45
v 140 112 45
v 140 112 45
v 140 112 45
v 140 112 45
v 140 112 45
v 140 112 45
v 140 112 45
v 140 112 45
v 144.592 111.087 45
v 143.247 111.087 48.2472
v 140 111.087 49.5922
v 136.753 111.087 48.2472
v 135.408 111.087 45
v 136.753 111.087 41.7528
v 140 111.087 40.4078
v 143.247 111.087 41.7528
v 144.592 111.087 45
v 148.485 108.485 45
v 146 108.485 51
v 140 108.485 53.4853
v 134 108.485 51
v 131.515 108.485 45
v 134 108.485 39
v 140 108.485 36.5147
v 146 108.485 39
v 148.485 108.485 45
v 151.087 104.592 45
v 147.839 104.592 52.8394
v 140 104.592 56.0866
v 132.161 104.592 52.8394
v 128.913 104.592 45
v 132.161 104.592 37.1606
v 140 104.592 33.9134
v 147.839 104.592 37.1606
v 151.087 104.592 45
v 152 100 45
v 148.485 100 53.4853
v 140 100 57
v 131.515 100 53.4853
v 128 100 45
v 131.515 100 36.5147
v 140 100 33
v 148.485 100 36.5147
v 152 100 45
v 151.087 95.4078 45
v 147.839 95.4078 52.8394
v 140 95.4078 56.0866
v 132.161 95.4078 52.8394
v 128.913 95.4078 45
v 132.161 95.4078 37.1606
v 140 95.4078 33.9134
v 147.839 95.4078 37.1606
v 151.087 95.4078 45
v 148.485 91.5147 45
v 146 91.5147 51
v 140 91.5147 53.4853
v 134 91.5147 51
v 131.515 91.5147 45
v 134 91.5147 39
v 140 91.5147 36.5147
v 146 91.5147 39
v 148.485 91.5147 45
v 144.592 88.9134 45
v 143.247 88.9134 48.2472
v 140 88.9134 49.5922
v 136.753 88.9134 48.2472
v 135.408 88.9134 45
v 136.753 88.9134 41.7528
v 140 88.9134 40.4078
v 143.247 88.9134 41.7528
v 144.592 88.9134 45
v 140 88 45
v 140 88 45
v 140 88 45
v 140 88 45
v 140 88 45
v 140 88 45
v 140 88 45
v 140 88 45
v 140 88 45
# Obstacle 3
v 100 158 105
v 100 158 105
v 100 158 105
v 100 158 105
v 100 158 105
v 100 158 105
v 100 158 105
v 100 158 105
v 100 158 105
v 106.888 156.63 105
v 104.871 156.63 109.871
v 100 156.63 111.888
v 95.1292 156.63 109.871
v 93.1117 156.63 105
v 95.1292 156.63 100.129
v 100 156.63 98.1117
v 104.871 156.63 100.129
v 106.888 156.63 105
v 112.728 152.728 105
v 109 152.728 114
v 100 152.728 117.728
v 91 152.728 114
v 87.2721 152.728 105
v 91 152.728 96
v 100 152.728 92.2721
v 109 152.728 96
v 112.728 152.728 105
v 116.63 146.888 105
v 111.759 146.888 116.759
v 100 146.888 121.63
v 88.2409 146.888 116.759
v 83.3702 146.888 105
v 88.2409 146.888 93.2409
v 100 146.888 88.3702
v 111.759 146.888 93.2409
v 116.63 146.888 105
v 118 140 105
v 112.728 140 117.728
v 100 140 123
v 87.2721 140 117.728
v 82 140 105
v 87.2721 140 92.2721
v 100 140 87
v 112.728 140 92.2721
v 118 140 105
v 116.63 133.112 105
v 111.759 133.112 116.759
v 100 133.112 121.63
v 88.2409 133.112 116.759
v 83.3702 133.112 105
v 88.2409 133.112 93.2409
v 100 133.112 88.3702
v 111.759 133.112 93.2409
v 116.63 133.112 105
v 112.728 127.272 105
v 109 127.272 114
v 100 127.272 117.728
v 91 127.272 114
v 87.2721 127.272 105
v 91 127.272 96
v 100 127.272 92.2721
v 109 127.272 96
v 112.728 127.272 105
v 106.888 123.37 105
v 104.871 123.37 109.871
v 100 123.37 111.888
v 95.1292 123.37 109.871
v 93.1117 123.37 105
v 95.1292 123.37 100.129
v 100 123.37 98.1117
v 104.871 123.37 100.129
v 106.888 123.37 105
v 100 122 105
v 100 122 105
v 100 122 105
v 100 122 105
v 100 122 105
v 100 122 105
v 100 122 105
v 100 122 105
v 100 122 105

# Target
v 71.8342 73.936 103.402
v 73.8342 73.936 103.402
v 69.8342 73.936 103.402
v 71.8342 75.936 103.402
v 71.8342 71.936 103.402
v 71.8342 73.936 105.402
v 71.8342 73.936 101.402

# Drones
v 181.639 46.4336 87.5406
v 181.639 46.4336 87.5406
v 181.639 46.4336 87.5406
v 181.639 46.4336 87.5406
v 181.639 46.4336 87.5406
v 181.993 46.2871 87.5406
v 181.639 46.2871 87.8941
v 181.286 46.2871 87.5406
v 181.639 46.2871 87.187
v 181.993 46.2871 87.5406
v 182.139 45.9336 87.5406
v 181.639 45.9336 88.0406
v 181.139 45.9336 87.5406
v 181.639 45.9336 87.0406
v 182.139 45.9336 87.5406
v 181.993 45.58 87.5406
v 181.639 45.58 87.8941
v 181.286 45.58 87.5406
v 181.639 45.58 87.187
v 181.993 45.58 87.5406
v 181.639 45.4336 87.5406
v 181.639 45.4336 87.5406
v 181.639 45.4336 87.5406
v 181.639 45.4336 87.5406
v 181.639 45.4336 87.5406
v 147.54 94.2913 116.059
v 147.54 94.2913 116.059
v 147.54 94.2913 116.059
v 147.54 94.2913 116.059
v 147.54 94.2913 116.059
v 147.893 94.1448 116.059
v 147.54 94.1448 116.413
v 147.186 94.1448 116.059
v 147.54 94.1448 115.706
v 147.893 94.1448 116.059
v 148.04 93.7913 116.059
v 147.54 93.7913 116.559
v 147.04 93.7913 116.059
v 147.54 93.7913 115.559
v 148.04 93.7913 116.059
v 147.893 93.4377 116.059
v 147.54 93.4377 116.413
v 147.186 93.4377 116.059
v 147.54 93.4377 115.706
v 147.893 93.4377 116.059
v 147.54 93.2913 116.059
v 147.54 93.2913 116.059
v 147.54 93.2913 116.059
v 147.54 93.2913 116.059
v 147.54 93.2913 116.059
v 142.687 73.9263 73.4322
v 142.687 73.9263 73.4322
v 142.687 73.9263 73.4322
v 142.687 73.9263 73.4322
v 142.687 73.9263 73.4322
v 143.041 73.7799 73.4322
v 142.687 73.7799 73.7857
v 142.334 73.7799 73.4322
v 142.687 73.7799 73.0786
v 143.041 73.7799 73.4322
v 143.187 73.4263 73.4322
v 142.687 73.4263 73.9322
v 142.187 73.4263 73.4322
v 142.687 73.4263 72.9322
v 143.187 73.4263 73.4322
v 143.041 73.0728 73.4322
v 142.687 73.0728 73.7857
v 142.334 73.0728 73.4322
v 142.687 73.0728 73.0786
v 143.041 73.0728 73.4322
v 142.687 72.9263 73.4322
v 142.687 72.9263 73.4322
v 142.687 72.9263 73.4322
v 142.687 72.9263 73.4322
v 142.687 72.9263 73.4322
v 151.343 116.238 93.8079
v 151.343 116.238 93.8079
v 151.343 116.238 93.8079
v 151.343 116.238 93.8079
v 151.343 116.238 93.8079
v 151.696 116.091 93.8079
v 151.343 116.091 94.1615
v 150.989 116.091 93.8079
v 151.343 116.091 93.4544
v 151.696 116.091 93.8079
v 151.843 115.738 93.8079
v 151.343 115.738 94.3079
v 150.843 115.738 93.8079
v 151.343 115.738 93.3079
v 151.843 115.738 93.8079
v 151.696 115.384 93.8079
v 151.343 115.384 94.1615
v 150.989 115.384 93.8079
v 151.343 115.384 93.4544
v 151.696 115.384 93.8079
v 151.343 115.238 93.8079
v 151.343 115.238 93.8079
v 151.343 115.238 93.8079
v 151.343 115.238 93.8079
v 151.343 115.238 93.8079
v 178.492 113.501 81.1262
v 178.492 113.501 81.1262
v 178.492 113.501 81.1262
v 178.492 113.501 81.1262
v 178.492 113.501 81.1262
v 178.846 113.354 81.1262
v 178.492 113.354 81.4798
v 178.139 113.354 81.1262
v 178.492 113.354 80.7727
v 178.846 113.354 81.1262
v 178.992 113.001 81.1262
v 178.492 113.001 81.6262
v 177.992 113.001 81.1262
v 178.492 113.001 80.6262
v 178.992 113.001 81.1262
v 178.846 112.647 81.1262
v 178.492 112.647 81.4798
v 178.139 112.647 81.1262
v 178.492 112.647 80.7727
v 178.846 112.647 81.1262
v 178.492 112.501 81.1262
v 178.492 112.501 81.1262
v 178.492 112.501 81.1262
v 178.492 112.501 81.1262
v 178.492 112.501 81.1262
v 166.082 85.5994 94.0722
v 166.082 85.5994 94.0722
v 166.082 85.5994 94.0722
v 166.082 85.5994 94.0722
v 166.082 85.5994 94.0722
v 166.436 85.4529 94.0722
v 166.082 85.4529 94.4257
v 165.729 85.4529 94.0722
v 166.082 85.4529 93.7186
v 166.436 85.4529 94.0722
v 166.582 85.0994 94.0722
v 166.082 85.0994 94.5722
v 165.582 85.0994 94.0722
v 166.082 85.0994 93.5722
v 166.582 85.0994 94.0722
v 166.436 84.7458 94.0722
v 166.082 84.7458 94.4257
v 165.729 84.7458 94.0722
v 166.082 84.7458 93.7186
v 166.436 84.7458 94.0722
v 166.082 84.5994 94.0722
v 166.082 84.5994 94.0722
v 166.082 84.5994 94.0722
v 166.082 84.5994 94.0722
v 166.082 84.5994 94.0722
v 197.192 93.3298 93.0051
v 197.192 93.3298 93.0051
v 197.192 93.3298 93.0051
v 197.192 93.3298 93.0051
v 197.192 93.3298 93.0051
v 197.546 93.1833 93.0051
v 197.192 93.1833 93.3586
v 196.839 93.1833 93.0051
v 197.192 93.1833 92.6515
v 197.546 93.1833 93.0051
v 197.692 92.8298 93.0051
v 197.192 92.8298 93.5051
v 196.692 92.8298 93.0051
v 197.192 92.8298 92.5051
v 197.692 92.8298 93.0051
v 197.546 92.4762 93.0051
v 197.192 92.4762 93.3586
v 196.839 92.4762 93.0051
v 197.192 92.4762 92.6515
v 197.546 92.4762 93.0051
v 197.192 92.3298 93.0051
v 197.192 92.3298 93.0051
v 197.192 92.3298 93.0051
v 197.192 92.3298 93.0051
v 197.192 92.3298 93.0051
v 187.426 73.1484 75.3725
v 187.426 73.1484 75.3725
v 187.426 73.1484 75.3725
v 187.426 73.1484 75.3725
v 187.426 73.1484 75.3725
v 187.78 73.002 75.3725
v 187.426 73.002 75.7261
v 187.073 73.002 75.3725
v 187.426 73.002 75.019
v 187.78 73.002 75.3725
v 187.926 72.6484 75.3725
v 187.426 72.6484 75.8725
v 186.926 72.6484 75.3725
v 187.426 72.6484 74.8725
v 187.926 72.6484 75.3725
v 187.78 72.2949 75.3725
v 187.426 72.2949 75.7261
v 187.073 72.2949 75.3725
v 187.426 72.2949 75.019
v 187.78 72.2949 75.3725
v 187.426 72.1484 75.3725
v 187.426 72.1484 75.3725
v 187.426 72.1484 75.3725
v 187.426 72.1484 75.3725
v 187.426 72.1484 75.3725
v 172.917 72.0385 49.0596
v 172.917 72.0385 49.0596
v 172.917 72.0385 49.0596
v 172.917 72.0385 49.0596
v 172.917 72.0385 49.0596
v 173.27 71.8921 49.0596
v 172.917 71.8921 49.4131
v 172.563 71.8921 49.0596
v 172.917 71.8921 48.706
v 173.27 71.8921 49.0596
v 173.417 71.5385 49.0596
v 172.917 71.5385 49.5596
v 172.417 71.5385 49.0596
v 172.917 71.5385 48.5596
v 173.417 71.5385 49.0596
v 173.27 71.185 49.0596
v 172.917 71.185 49.4131
v 172.563 71.185 49.0596
v 172.917 71.185 48.706
v 173.27 71.185 49.0596
v 172.917 71.0385 49.0596
v 172.917 71.0385 49.0596
v 172.917 71.0385 49.0596
v 172.917 71.0385 49.0596
v 172.917 71.0385 49.0596
v 157.516 51.0626 64.0719
v 157.516 51.0626 64.0719
v 157.516 51.0626 64.0719
v 157.516 51.0626 64.0719
v 157.516 51.0626 64.0719
v 157.87 50.9162 64.0719
v 157.516 50.9162 64.4254
v 157.163 50.9162 64.0719
v 157.516 50.9162 63.7183
v 157.87 50.9162 64.0719
v 158.016 50.5626 64.0719
v 157.516 50.5626 64.5719
v 157.016 50.5626 64.0719
v 157.516 50.5626 63.5719
v 158.016 50.5626 64.0719
v 157.87 50.2091 64.0719
v 157.516 50.2091 64.4254
v 157.163 50.2091 64.0719
v 157.516 50.2091 63.7183
v 157.87 50.2091 64.0719
v 157.516 50.0626 64.0719
v 157.516 50.0626 64.0719
v 157.516 50.0626 64.0719
v 157.516 50.0626 64.0719
v 157.516 50.0626 64.0719
v 134.751 91.7459 87.9659
v 134.751 91.7459 87.9659
v 134.751 91.7459 87.9659
v 134.751 91.7459 87.9659
v 134.751 91.7459 87.9659
v 135.105 91.5994 87.9659
v 134.751 91.5994 88.3194
v 134.398 91.5994 87.9659
v 134.751 91.5994 87.6123
v 135.105 91.5994 87.9659
v 135.251 91.2459 87.9659
v 134.751 91.2459 88.4659
v 134.251 91.2459 87.9659
v 134.751 91.2459 87.4659
v 135.251 91.2459 87.9659
v 135.105 90.8923 87.9659
v 134.751 90.8923 88.3194
v 134.398 90.8923 87.9659
v 134.751 90.8923 87.6123
v 135.105 90.8923 87.9659
v 134.751 90.7459 87.9659
v 134.751 90.7459 87.9659
v 134.751 90.7459 87.9659
v 134.751 90.7459 87.9659
v 134.751 90.7459 87.9659
v 183.567 64.7693 108.744
v 183.567 64.7693 108.744
v 183.567 64.7693 108.744
v 183.567 64.7693 108.744
v 183.567 64.7693 108.744
v 183.921 64.6229 108.744
v 183.567 64.6229 109.097
v 183.214 64.6229 108.744
v 183.567 64.6229 108.39
v 183.921 64.6229 108.744
v 184.067 64.2693 108.744
v 183.567 64.2693 109.244
v 183.067 64.2693 108.744
v 183.567 64.2693 108.244
v 184.067 64.2693 108.744
v 183.921 63.9158 108.744
v 183.567 63.9158 109.097
v 183.214 63.9158 108.744
v 183.567 63.9158 108.39
v 183.921 63.9158 108.744
v 183.567 63.7693 108.744
v 183.567 63.7693 108.744
v 183.567 63.7693 108.744
v 183.567 63.7693 108.744
v 183.567 63.7693 108.744
v 177.575 106.833 112.308
v 177.575 106.833 112.308
v 177.575 106.833 112.308
v 177.575 106.833 112.308
v 177.575 106.833 112.308
v 177.928 106.687 112.308
v 177.575 106.687 112.662
v 177.221 106.687 112.308
v 177.575 106.687 111.955
v 177.928 106.687 112.308
v 178.075 106.333 112.308
v 177.575 106.333 112.808
v 177.075 106.333 112.308
v 177.575 106.333 111.808
v 178.075 106.333 112.308
v 177.928 105.98 112.308
v 177.575 105.98 112.662
v 177.221 105.98 112.308
v 177.575 105.98 111.955
v 177.928 105.98 112.308
v 177.575 105.833 112.308
v 177.575 105.833 112.308
v 177.575 105.833 112.308
v 177.575 105.833 112.308
v 177.575 105.833 112.308
v 148.879 65.1389 126.501
v 148.879 65.1389 126.501
v 148.879 65.1389 126.501
v 148.879 65.1389 126.501
v 148.879 65.1389 126.501
v 149.232 64.9925 126.501
v 148.879 64.9925 126.854
v 148.525 64.9925 126.501
v 148.879 64.9925 126.147
v 149.232 64.9925 126.501
v 149.379 64.6389 126.501
v 148.879 64.6389 127.001
v 148.379 64.6389 126.501
v 148.879 64.6389 126.001
v 149.379 64.6389 126.501
v 149.232 64.2854 126.501
v 148.879 64.2854 126.854
v 148.525 64.2854 126.501
v 148.879 64.2854 126.147
v 149.232 64.2854 126.501
v 148.879 64.1389 126.501
v 148.879 64.1389 126.501
v 148.879 64.1389 126.501
v 148.879 64.1389 126.501
v 148.879 64.1389 126.501
v 172.807 84.0479 131.345
v 172.807 84.0479 131.345
v 172.807 84.0479 131.345
v 172.807 84.0479 131.345
v 172.807 84.0479 131.345
v 173.161 83.9015 131.345
v 172.807 83.9015 131.699
v 172.454 83.9015 131.345
v 172.807 83.9015 130.991
v 173.161 83.9015 131.345
v 173.307 83.5479 131.345
v 172.807 83.5479 131.845
v 172.307 83.5479 131.345
v 172.807 83.5479 130.845
v 173.307 83.5479 131.345
v 173.161 83.1944 131.345
v 172.807 83.1944 131.699
v 172.454 83.1944 131.345
v 172.807 83.1944 130.991
v 173.161 83.1944 131.345
v 172.807 83.0479 131.345
v 172.807 83.0479 131.345
v 172.807 83.0479 131.345
v 172.807 83.0479 131.345
v 172.807 83.0479 131.345
v 137.089 47.3505 86.2393
v 137.089 47.3505 86.2393
v 137.089 47.3505 86.2393
v 137.089 47.3505 86.2393
v 137.089 47.3505 86.2393
v 137.443 47.204 86.2393
v 137.089 47.204 86.5929
v 136.736 47.204 86.2393
v 137.089 47.204 85.8858
v 137.443 47.204 86.2393
v 137.589 46.8505 86.2393
v 137.089 46.8505 86.7393
v 136.589 46.8505 86.2393
v 137.089 46.8505 85.7393
v 137.589 46.8505 86.2393
v 137.443 46.4969 86.2393
v 137.089 46.4969 86.5929
v 136.736 46.4969 86.2393
v 137.089 46.4969 85.8858
v 137.443 46.4969 86.2393
v 137.089 46.3505 86.2393
v 137.089 46.3505 86.2393
v 137.089 46.3505 86.2393
v 137.089 46.3505 86.2393
v 137.089 46.3505 86.2393
v 128.297 68.5305 105.792
v 128.297 68.5305 105.792
v 128.297 68.5305 105.792
v 128.297 68.5305 105.792
v 128.297 68.5305 105.792
v 128.65 68.384 105.792
v 128.297 68.384 106.146
v 127.943 68.384 105.792
v 128.297 68.384 105.439
v 128.65 68.384 105.792
v 128.797 68.0305 105.792
v 128.297 68.0305 106.292
v 127.797 68.0305 105.792
v 128.297 68.0305 105.292
v 128.797 68.0305 105.792
v 128.65 67.6769 105.792
v 128.297 67.6769 106.146
v 127.943 67.6769 105.792
v 128.297 67.6769 105.439
v 128.65 67.6769 105.792
v 128.297 67.5305 105.792
v 128.297 67.5305 105.792
v 128.297 67.5305 105.792
v 128.297 67.5305 105.792
v 128.297 67.5305 105.792
v 160.596 90.0125 69.3136
v 160.596 90.0125 69.3136
v 160.596 90.0125 69.3136
v 160.596 90.0125 69.3136
v 160.596 90.0125 69.3136
v 160.95 89.8661 69.3136
v 160.596 89.8661 69.6671
v 160.243 89.8661 69.3136
v 160.596 89.8661 68.96
v 160.95 89.8661 69.3136
v 161.096 89.5125 69.3136
v 160.596 89.5125 69.8136
v 160.096 89.5125 69.3136
v 160.596 89.5125 68.8136
v 161.096 89.5125 69.3136
v 160.95 89.1589 69.3136
v 160.596 89.1589 69.6671
v 160.243 89.1589 69.3136
v 160.596 89.1589 68.96
v 160.95 89.1589 69.3136
v 160.596 89.0125 69.3136
v 160.596 89.0125 69.3136
v 160.596 89.0125 69.3136
v 160.596 89.0125 69.3136
v 160.596 89.0125 69.3136
v 161.487 66.119 90.5494
v 161.487 66.119 90.5494
v 161.487 66.119 90.5494
v 161.487 66.119 90.5494
v 161.487 66.119 90.5494
v 161.841 65.9725 90.5494
v 161.487 65.9725 90.9029
v 161.134 65.9725 90.5494
v 161.487 65.9725 90.1958
v 161.841 65.9725 90.5494
v 161.987 65.619 90.5494
v 161.487 65.619 91.0494
v 160.987 65.619 90.5494
v 161.487 65.619 90.0494
v 161.987 65.619 90.5494
v 161.841 65.2654 90.5494
v 161.487 65.2654 90.9029
v 161.134 65.2654 90.5494
v 161.487 65.2654 90.1958
v 161.841 65.2654 90.5494
v 161.487 65.119 90.5494
v 161.487 65.119 90.5494
v 161.487 65.119 90.5494
v 161.487 65.119 90.5494
v 161.487 65.119 90.5494
v 159.309 45.7139 106.179
v 159.309 45.7139 106.179
v 159.309 45.7139 106.179
v 159.309 45.7139 106.179
v 159.309 45.7139 106.179
v 159.662 45.5675 106.179
v 159.309 45.5675 106.532
v 158.955 45.5675 106.179
v 159.309 45.5675 105.825
v 159.662 45.5675 106.179
v 159.809 45.2139 106.179
v 159.309 45.2139 106.679
v 158.809 45.2139 106.179
v 159.309 45.2139 105.679
v 159.809 45.2139 106.179
v 159.662 44.8604 106.179
v 159.309 44.8604 106.532
v 158.955 44.8604 106.179
v 159.309 44.8604 105.825
v 159.662 44.8604 106.179
v 159.309 44.7139 106.179
v 159.309 44.7139 106.179
v 159.309 44.7139 106.179
v 159.309 44.7139 106.179
v 159.309 44.7139 106.179
